<svg width="50" height="50" viewBox="0 0 50 50" fill="none" xmlns="http://www.w3.org/2000/svg">
<path d="M25 42C15.6 42 8 34.4 8 25C8 15.6 15.6 8 25 8C34.4 8 42 15.6 42 25C42 34.4 34.4 42 25 42ZM25 10C16.7 10 10 16.7 10 25C10 33.3 16.7 40 25 40C33.3 40 40 33.3 40 25C40 16.7 33.3 10 25 10Z" fill="#B6C6D8"/>
<path d="M33.2998 26.7001L24.9998 18.4001L16.6998 26.7001L15.2998 25.3001L24.9998 15.6001L34.6998 25.3001L33.2998 26.7001Z" fill="#B6C6D8"/>
<path d="M24 17H26V34H24V17Z" fill="#B6C6D8"/>
</svg>
