<svg width="50" height="50" viewBox="0 0 50 50" fill="none" xmlns="http://www.w3.org/2000/svg">
<path d="M25 8C15.6 8 8 15.6 8 25C8 34.4 15.6 42 25 42C34.4 42 42 34.4 42 25C42 15.6 34.4 8 25 8ZM25 40C16.7 40 10 33.3 10 25C10 16.7 16.7 10 25 10C33.3 10 40 16.7 40 25C40 33.3 33.3 40 25 40Z" fill="#B6C6D8"/>
<path d="M33.2998 23.2999L24.9998 31.5999L16.6998 23.2999L15.2998 24.6999L24.9998 34.3999L34.6998 24.6999L33.2998 23.2999Z" fill="#B6C6D8"/>
<path d="M24 33H26V16H24V33Z" fill="#B6C6D8"/>
</svg>
